<!-- Taken from Wikimedia Commons and modified slightly https://commons.wikimedia.org/wiki/Category:SVG_chess_pieces -->
<svg width="45" height="45" xmlns="http://www.w3.org/2000/svg">
  <g id="layer1">
    <g id="g7691" style="fill:#33adff;fill-opacity:1">
      <path id="path6570" d="M 22.5,11.625 L 22.5,6" style="fill:#33adff;fill-opacity:1;fill-rule:evenodd;stroke:black;stroke-width:1.50000000000000000;stroke-linecap:round;stroke-linejoin:miter;stroke-opacity:1;stroke-miterlimit:4;stroke-dasharray:none"/>
      <path id="path5683" d="M 22.5,25 C 22.5,25 27,17.5 25.5,14.5 C 25.5,14.5 24.5,12 22.5,12 C 20.5,12 19.5,14.5 19.5,14.5 C 18,17.5 22.5,25 22.5,25" style="fill:#33adff;fill-opacity:1;fill-rule:evenodd;stroke:black;stroke-width:1.50000000000000000;stroke-linecap:butt;stroke-linejoin:miter;stroke-opacity:1;stroke-miterlimit:4;stroke-dasharray:none"/>
      <path id="path5681" d="M 11.5,37 C 17,40.5 27,40.5 32.5,37 L 32.5,30 C 32.5,30 41.5,25.5 38.5,19.5 C 34.5,13 25,16 22.5,23.5 L 22.5,27 L 22.5,23.5 C 19,16 9.5,13 6.5,19.5 C 3.5,25.5 11.5,29.5 11.5,29.5 L 11.5,37 z " style="fill:#33adff;fill-opacity:1;fill-rule:evenodd;stroke:black;stroke-width:1.50000000000000000;stroke-linecap:round;stroke-linejoin:round;stroke-opacity:1;stroke-miterlimit:4;stroke-dasharray:none"/>
      <path id="path6572" d="M 20,8 L 25,8" style="fill:#33adff;fill-opacity:1;fill-rule:evenodd;stroke:black;stroke-width:1.50000000000000000;stroke-linecap:round;stroke-linejoin:miter;stroke-opacity:1;stroke-miterlimit:4;stroke-dasharray:none"/>
      <path id="path6574" d="M 11.5,29.5 C 17,27 27,27 32.5,30" style="fill:#33adff;fill-opacity:1;fill-rule:evenodd;stroke:black;stroke-width:1.50000000000000000;stroke-linecap:round;stroke-linejoin:miter;stroke-opacity:1;stroke-miterlimit:4;stroke-dasharray:none"/>
      <path id="path6576" d="M 11.5,37 C 17,34.5 27,34.5 32.5,37" style="fill:#33adff;fill-opacity:1;fill-rule:evenodd;stroke:black;stroke-width:1.50000000000000000;stroke-linecap:round;stroke-linejoin:round;stroke-opacity:1;stroke-miterlimit:4;stroke-dasharray:none"/>
      <path id="path6578" d="M 11.5,33.5 C 17,31.5 27,31.5 32.5,33.5" style="fill:#33adff;fill-opacity:1;fill-rule:evenodd;stroke:black;stroke-width:1.50000000000000000;stroke-linecap:round;stroke-linejoin:round;stroke-opacity:1;stroke-miterlimit:4;stroke-dasharray:none"/>
    </g>
  </g>
</svg>
